<svg height="191.21656324067936" width="350" style="width: 350px; height: 191.217px; position: absolute; top: 50%; left: 50%; transform: translate(-50%, -50%) scale(1); z-index: 0; cursor: pointer;"><defs id="SvgjsDefs1001"><linearGradient id="SvgjsLinearGradient1013"><stop id="SvgjsStop1014" stop-color="#ffffff" offset="0"></stop><stop id="SvgjsStop1015" stop-color="#ffffff" offset="1"></stop></linearGradient><linearGradient id="SvgjsLinearGradient1016"><stop id="SvgjsStop1017" stop-color="#ffffff" offset="0"></stop><stop id="SvgjsStop1018" stop-color="#ffffff" offset="1"></stop></linearGradient><linearGradient id="SvgjsLinearGradient1019"><stop id="SvgjsStop1020" stop-color="#ffffff" offset="0"></stop><stop id="SvgjsStop1021" stop-color="#ffffff" offset="1"></stop></linearGradient></defs><g id="SvgjsG1007" featurekey="e7LhAk-0" transform="matrix(1.9977167557865818,0,0,1.9977167557865818,75.61415649515743,-43.74999618965768)" fill="url(#SvgjsLinearGradient1013)"><polygon xmlns="http://www.w3.org/2000/svg" points="26.2,35.4 6.2,47.9 6.2,52.1 26.2,64.6 28.8,60.4 12.2,50 28.8,39.6 "></polygon><polygon xmlns="http://www.w3.org/2000/svg" points="71.2,39.6 87.8,50 71.2,60.4 73.8,64.6 93.8,52.1 93.8,47.9 73.8,35.4 "></polygon><polygon xmlns="http://www.w3.org/2000/svg" points="51.7,28.7 39,55.9 52.6,62.2 53.6,60 65.2,35 68.4,28.2 54.8,21.9 "></polygon><polygon xmlns="http://www.w3.org/2000/svg" points="38.4,74.9 50.5,66.8 36.9,60.4 "></polygon></g><g id="SvgjsG1008" featurekey="Qg0WB5-0" transform="matrix(1.805642901715123,0,0,1.805642901715123,-1.8237018965052116,117.09817994350595)" fill="url(#SvgjsLinearGradient1016)"><path d="M2.44 5.59 q0.02 -0.18 0.14 -0.31 t0.34 -0.13 l3.46 0 q0.37 0 0.48 0.38 l2.72 9.08 l2.74 -9.08 q0.14 -0.38 0.51 -0.38 l3.42 0 q0.18 0 0.325 0.125 t0.165 0.315 q0.35 3.52 0.715 6.985 t0.715 6.985 l0 0.05 q0 0.39 -0.44 0.39 l-2.83 0 q-0.46 0 -0.48 -0.44 l-0.87 -7.73 l-2.25 7.78 q-0.02 0.1 -0.145 0.24 t-0.245 0.14 l-2.63 0 q-0.12 0 -0.255 -0.135 t-0.145 -0.245 l-2.25 -7.76 l-0.87 7.71 q-0.02 0.44 -0.49 0.44 l-2.83 0 q-0.43 0 -0.43 -0.44 z M20.33975 5.609999999999999 q0 -0.21 0.115 -0.335 t0.325 -0.125 l9.93 0 q0.22 0 0.34 0.13 t0.12 0.35 l0 2.48 q0 0.17 -0.12 0.325 t-0.35 0.155 l-6.48 0 l0 2.47 l5 0 q0.19 0 0.315 0.09 t0.125 0.3 l0 2.16 q0 0.14 -0.11 0.27 t-0.32 0.13 l-5.01 0 l0 2.55 l6.72 0 q0.45 0 0.45 0.46 l0 2.52 q0 0.1 -0.08 0.18 q-0.04 0.28 -0.41 0.28 l-10.12 0 q-0.2 0 -0.32 -0.105 t-0.12 -0.325 l0 -13.96 z M33.009499999999996 5.58 q0 -0.18 0.12 -0.31 t0.33 -0.13 l2.96 0 q0.17 0 0.31 0.12 t0.15 0.32 l0 10.88 l5.5 0 q0.18 0 0.31 0.12 t0.13 0.33 l0 2.63 q0 0.17 -0.115 0.31 t-0.325 0.15 l-8.93 0 q-0.44 0 -0.44 -0.44 l0 -13.98 z M47.15925 19.79 q-0.11 -0.18 -0.195 -0.37 t-0.165 -0.39 l-5.13 -13.43 q0 -0.05 -0.015 -0.09 t-0.015 -0.08 q0 -0.28 0.37 -0.28 l3.22 0 q0.38 0 0.52 0.38 l3.05 9.1 q0.41 -1.14 0.785 -2.275 t0.74 -2.275 t0.74 -2.275 t0.785 -2.275 q0.14 -0.38 0.55 -0.38 l3.15 0 q0.23 0 0.325 0.085 t0.095 0.225 q0 0.08 -0.01 0.11 l0 0.03 l-5.16 13.43 q-0.05 0.14 -0.12 0.31 t-0.16 0.315 t-0.21 0.245 t-0.27 0.1 l-2.47 0 q-0.31 0 -0.41 -0.21 z M57.329 5.59 q0 -0.18 0.11 -0.31 t0.33 -0.13 l2.94 0 q0.15 0 0.32 0.12 t0.17 0.32 l0 13.97 q0 0.44 -0.49 0.44 l-2.94 0 q-0.44 0 -0.44 -0.44 l0 -13.97 z M63.97875 5.59 q0 -0.18 0.11 -0.31 t0.33 -0.13 l3.27 0 q0.14 0 0.29 0.07 t0.26 0.24 q1.27 2.05 2.52 4.04 t2.53 4.04 l0 -8.01 q0.04 -0.18 0.16 -0.28 t0.28 -0.1 l2.85 0 q0.21 0 0.35 0.115 t0.14 0.325 l0 14.02 q0 0.2 -0.12 0.295 t-0.33 0.095 l-3.19 0 q-0.13 0 -0.23 -0.09 t-0.21 -0.24 q-1.33 -2.2 -2.63 -4.35 t-2.64 -4.35 l0 8.59 q0 0.22 -0.1 0.33 t-0.36 0.11 l-2.84 0 q-0.23 0 -0.335 -0.125 t-0.105 -0.305 l0 -13.98 z M79.8485 5.609999999999999 q0 -0.21 0.115 -0.335 t0.325 -0.125 l9.93 0 q0.22 0 0.34 0.13 t0.12 0.35 l0 2.48 q0 0.17 -0.12 0.325 t-0.35 0.155 l-6.48 0 l0 2.47 l5 0 q0.19 0 0.315 0.09 t0.125 0.3 l0 2.16 q0 0.14 -0.11 0.27 t-0.32 0.13 l-5.01 0 l0 2.55 l6.72 0 q0.45 0 0.45 0.46 l0 2.52 q0 0.1 -0.08 0.18 q-0.04 0.28 -0.41 0.28 l-10.12 0 q-0.2 0 -0.32 -0.105 t-0.12 -0.325 l0 -13.96 z M92.90825000000001 5.59 q0 -0.18 0.11 -0.31 t0.33 -0.13 l3.27 0 q0.14 0 0.29 0.07 t0.26 0.24 q1.27 2.05 2.52 4.04 t2.53 4.04 l0 -8.01 q0.04 -0.18 0.16 -0.28 t0.28 -0.1 l2.85 0 q0.21 0 0.35 0.115 t0.14 0.325 l0 14.02 q0 0.2 -0.12 0.295 t-0.33 0.095 l-3.19 0 q-0.13 0 -0.23 -0.09 t-0.21 -0.24 q-1.33 -2.2 -2.63 -4.35 t-2.64 -4.35 l0 8.59 q0 0.22 -0.1 0.33 t-0.36 0.11 l-2.84 0 q-0.23 0 -0.335 -0.125 t-0.105 -0.305 l0 -13.98 z M109.608 5.59 q0.02 -0.18 0.14 -0.31 t0.34 -0.13 l3.46 0 q0.37 0 0.48 0.38 l2.72 9.08 l2.74 -9.08 q0.14 -0.38 0.51 -0.38 l3.42 0 q0.18 0 0.325 0.125 t0.165 0.315 q0.35 3.52 0.715 6.985 t0.715 6.985 l0 0.05 q0 0.39 -0.44 0.39 l-2.83 0 q-0.46 0 -0.48 -0.44 l-0.87 -7.73 l-2.25 7.78 q-0.02 0.1 -0.145 0.24 t-0.245 0.14 l-2.63 0 q-0.12 0 -0.255 -0.135 t-0.145 -0.245 l-2.25 -7.76 l-0.87 7.71 q-0.02 0.44 -0.49 0.44 l-2.83 0 q-0.43 0 -0.43 -0.44 z M130.67775 12.58 q0 0.83 0.28 1.55 t0.785 1.255 t1.195 0.84 t1.52 0.305 t1.525 -0.305 t1.2 -0.84 t0.785 -1.255 t0.28 -1.55 q0 -0.82 -0.28 -1.545 t-0.785 -1.265 t-1.2 -0.85 t-1.525 -0.31 t-1.52 0.31 t-1.195 0.85 t-0.785 1.265 t-0.28 1.545 z M126.81775 12.59 q0 -1.06 0.27 -2.035 t0.77 -1.83 t1.195 -1.555 t1.545 -1.195 t1.825 -0.77 t2.035 -0.275 q1.05 0 2.03 0.275 t1.83 0.77 t1.55 1.195 t1.195 1.555 t0.77 1.83 t0.275 2.035 t-0.275 2.035 t-0.77 1.82 t-1.195 1.54 t-1.55 1.195 t-1.83 0.77 t-2.03 0.27 q-1.06 0 -2.035 -0.27 t-1.825 -0.77 t-1.545 -1.195 t-1.195 -1.54 t-0.77 -1.82 t-0.27 -2.035 z M155.4075 6.23 q0.17 0.1 0.25 0.26 t-0.03 0.38 l-1.69 2.4 q-0.11 0.17 -0.235 0.195 t-0.305 -0.085 q-0.49 -0.37 -1.08 -0.57 t-1.25 -0.2 q-0.82 0 -1.51 0.31 t-1.19 0.85 t-0.78 1.26 t-0.28 1.54 t0.28 1.535 t0.78 1.25 t1.19 0.845 t1.51 0.31 q0.66 0 1.26 -0.205 t1.09 -0.575 q0.18 -0.11 0.3 -0.09 t0.24 0.18 l1.71 2.46 q0.11 0.22 0.03 0.37 t-0.25 0.25 q-0.94 0.63 -2.025 0.975 t-2.285 0.345 q-1.06 0 -2.035 -0.27 t-1.825 -0.77 t-1.545 -1.195 t-1.195 -1.54 t-0.77 -1.82 t-0.27 -2.035 t0.27 -2.035 t0.77 -1.83 t1.195 -1.555 t1.545 -1.195 t1.825 -0.77 t2.035 -0.275 q1.2 0 2.265 0.335 t2.005 0.965 z M157.72725 5.59 q0 -0.18 0.11 -0.31 t0.33 -0.13 l2.94 0 q0.15 0 0.32 0.12 t0.17 0.32 l0 13.97 q0 0.44 -0.49 0.44 l-2.94 0 q-0.44 0 -0.44 -0.44 l0 -13.97 z M164.377 5.59 q0 -0.18 0.11 -0.31 t0.33 -0.13 l3.27 0 q0.14 0 0.29 0.07 t0.26 0.24 q1.27 2.05 2.52 4.04 t2.53 4.04 l0 -8.01 q0.04 -0.18 0.16 -0.28 t0.28 -0.1 l2.85 0 q0.21 0 0.35 0.115 t0.14 0.325 l0 14.02 q0 0.2 -0.12 0.295 t-0.33 0.095 l-3.19 0 q-0.13 0 -0.23 -0.09 t-0.21 -0.24 q-1.33 -2.2 -2.63 -4.35 t-2.64 -4.35 l0 8.59 q0 0.22 -0.1 0.33 t-0.36 0.11 l-2.84 0 q-0.23 0 -0.335 -0.125 t-0.105 -0.305 l0 -13.98 z M183.41675 12.58 q0 0.83 0.28 1.55 t0.785 1.255 t1.195 0.84 t1.52 0.305 t1.525 -0.305 t1.2 -0.84 t0.785 -1.255 t0.28 -1.55 q0 -0.82 -0.28 -1.545 t-0.785 -1.265 t-1.2 -0.85 t-1.525 -0.31 t-1.52 0.31 t-1.195 0.85 t-0.785 1.265 t-0.28 1.545 z M179.55675 12.59 q0 -1.06 0.27 -2.035 t0.77 -1.83 t1.195 -1.555 t1.545 -1.195 t1.825 -0.77 t2.035 -0.275 q1.05 0 2.03 0.275 t1.83 0.77 t1.55 1.195 t1.195 1.555 t0.77 1.83 t0.275 2.035 t-0.275 2.035 t-0.77 1.82 t-1.195 1.54 t-1.55 1.195 t-1.83 0.77 t-2.03 0.27 q-1.06 0 -2.035 -0.27 t-1.825 -0.77 t-1.545 -1.195 t-1.195 -1.54 t-0.77 -1.82 t-0.27 -2.035 z"></path></g><g id="SvgjsG1009" featurekey="Qg0WB5-1" transform="matrix(1.6752596597031837,0,0,1.6752596597031837,156.9896875296475,158.10308483155876)" fill="url(#SvgjsLinearGradient1019)"><path d="M5.04 8.63 q0.19 -0.28 0.46 -0.555 t0.635 -0.49 t0.83 -0.35 t1.055 -0.135 q1.14 0 2.035 0.44 t1.52 1.2 t0.95 1.775 t0.325 2.165 l0 6.55 q0 0.38 -0.165 0.575 t-0.525 0.195 l-2.31 0 q-0.43 0 -0.59 -0.145 t-0.16 -0.565 l0 -6.61 q0 -0.43 -0.165 -0.8 t-0.445 -0.645 t-0.655 -0.43 t-0.795 -0.155 q-0.36 0 -0.705 0.145 t-0.62 0.41 t-0.46 0.635 t-0.215 0.82 l0 6.6 q0 0.17 -0.065 0.34 t-0.195 0.26 q-0.13 0.08 -0.245 0.11 t-0.265 0.03 l-2.26 0 q-0.43 0 -0.62 -0.21 t-0.19 -0.56 l0 -8.14 l0 -0.07 l0 -2.98 l0 -0.05 l0 -3.71 q0 -0.34 0.19 -0.55 t0.62 -0.21 l2.26 0 q0.23 0 0.51 0.16 q0.13 0.09 0.195 0.26 t0.065 0.32 l0 4.37 z M14.119750000000002 6.67 q0 -0.38 0.44 -0.62 l1.36 -0.67 q0.26 -0.17 0.51 -0.2 t0.64 -0.03 l2.26 0 q0.2 0 0.34 0.12 t0.14 0.32 l0 13.97 q0 0.44 -0.47 0.44 l-2.84 0 q-0.25 0 -0.345 -0.135 t-0.095 -0.285 l0 -11.02 l-1.37 0.68 q-0.05 0.02 -0.1 0.015 t-0.07 0.035 q-0.19 0 -0.295 -0.14 t-0.105 -0.33 l0 -2.15 z"></path></g></svg>