<svg height="84.3283975672743" width="369.6194690265487" style="width: 369.619px; height: 84.3284px; position: absolute; top: 50%; left: 50%; transform: translate(-50%, -50%) scale(1); z-index: 0; cursor: pointer;"><defs id="SvgjsDefs1001"><linearGradient id="SvgjsLinearGradient1011"><stop id="SvgjsStop1012" stop-color="#2d388a" offset="0"></stop><stop id="SvgjsStop1013" stop-color="#00aeef" offset="1"></stop></linearGradient><linearGradient id="SvgjsLinearGradient1014"><stop id="SvgjsStop1015" stop-color="#2d388a" offset="0"></stop><stop id="SvgjsStop1016" stop-color="#00aeef" offset="1"></stop></linearGradient></defs><g id="SvgjsG1007" featurekey="e7LhAk-0" transform="matrix(1.5911018408919677,0,0,1.5911018408919677,-9.864831110051608,-34.845129708576906)" fill="url(#SvgjsLinearGradient1011)"><polygon xmlns="http://www.w3.org/2000/svg" points="26.2,35.4 6.2,47.9 6.2,52.1 26.2,64.6 28.8,60.4 12.2,50 28.8,39.6 "></polygon><polygon xmlns="http://www.w3.org/2000/svg" points="71.2,39.6 87.8,50 71.2,60.4 73.8,64.6 93.8,52.1 93.8,47.9 73.8,35.4 "></polygon><polygon xmlns="http://www.w3.org/2000/svg" points="51.7,28.7 39,55.9 52.6,62.2 53.6,60 65.2,35 68.4,28.2 54.8,21.9 "></polygon><polygon xmlns="http://www.w3.org/2000/svg" points="38.4,74.9 50.5,66.8 36.9,60.4 "></polygon></g><g id="SvgjsG1008" featurekey="Qg0WB5-0" transform="matrix(2.604702303383856,0,0,2.604702303383856,156.36924697236614,9.611830508372257)" fill="url(#SvgjsLinearGradient1014)"><path d="M2.44 5.59 q0.02 -0.18 0.14 -0.31 t0.34 -0.13 l3.46 0 q0.37 0 0.48 0.38 l2.72 9.08 l2.74 -9.08 q0.14 -0.38 0.51 -0.38 l3.42 0 q0.18 0 0.325 0.125 t0.165 0.315 q0.35 3.52 0.715 6.985 t0.715 6.985 l0 0.05 q0 0.39 -0.44 0.39 l-2.83 0 q-0.46 0 -0.48 -0.44 l-0.87 -7.73 l-2.25 7.78 q-0.02 0.1 -0.145 0.24 t-0.245 0.14 l-2.63 0 q-0.12 0 -0.255 -0.135 t-0.145 -0.245 l-2.25 -7.76 l-0.87 7.71 q-0.02 0.44 -0.49 0.44 l-2.83 0 q-0.43 0 -0.43 -0.44 z M21.300250000000002 5.609999999999999 q0 -0.21 0.115 -0.335 t0.325 -0.125 l9.93 0 q0.22 0 0.34 0.13 t0.12 0.35 l0 2.48 q0 0.17 -0.12 0.325 t-0.35 0.155 l-6.48 0 l0 2.47 l5 0 q0.19 0 0.315 0.09 t0.125 0.3 l0 2.16 q0 0.14 -0.11 0.27 t-0.32 0.13 l-5.01 0 l0 2.55 l6.72 0 q0.45 0 0.45 0.46 l0 2.52 q0 0.1 -0.08 0.18 q-0.04 0.28 -0.41 0.28 l-10.12 0 q-0.2 0 -0.32 -0.105 t-0.12 -0.325 l0 -13.96 z M34.9305 5.58 q0 -0.18 0.12 -0.31 t0.33 -0.13 l2.96 0 q0.17 0 0.31 0.12 t0.15 0.32 l0 10.88 l5.5 0 q0.18 0 0.31 0.12 t0.13 0.33 l0 2.63 q0 0.17 -0.115 0.31 t-0.325 0.15 l-8.93 0 q-0.44 0 -0.44 -0.44 l0 -13.98 z M50.04075000000001 19.79 q-0.11 -0.18 -0.195 -0.37 t-0.165 -0.39 l-5.13 -13.43 q0 -0.05 -0.015 -0.09 t-0.015 -0.08 q0 -0.28 0.37 -0.28 l3.22 0 q0.38 0 0.52 0.38 l3.05 9.1 q0.41 -1.14 0.785 -2.275 t0.74 -2.275 t0.74 -2.275 t0.785 -2.275 q0.14 -0.38 0.55 -0.38 l3.15 0 q0.23 0 0.325 0.085 t0.095 0.225 q0 0.08 -0.01 0.11 l0 0.03 l-5.16 13.43 q-0.05 0.14 -0.12 0.31 t-0.16 0.315 t-0.21 0.245 t-0.27 0.1 l-2.47 0 q-0.31 0 -0.41 -0.21 z M61.17100000000001 5.59 q0 -0.18 0.11 -0.31 t0.33 -0.13 l2.94 0 q0.15 0 0.32 0.12 t0.17 0.32 l0 13.97 q0 0.44 -0.49 0.44 l-2.94 0 q-0.44 0 -0.44 -0.44 l0 -13.97 z M68.78125000000001 5.59 q0 -0.18 0.11 -0.31 t0.33 -0.13 l3.27 0 q0.14 0 0.29 0.07 t0.26 0.24 q1.27 2.05 2.52 4.04 t2.53 4.04 l0 -8.01 q0.04 -0.18 0.16 -0.28 t0.28 -0.1 l2.85 0 q0.21 0 0.35 0.115 t0.14 0.325 l0 14.02 q0 0.2 -0.12 0.295 t-0.33 0.095 l-3.19 0 q-0.13 0 -0.23 -0.09 t-0.21 -0.24 q-1.33 -2.2 -2.63 -4.35 t-2.64 -4.35 l0 8.59 q0 0.22 -0.1 0.33 t-0.36 0.11 l-2.84 0 q-0.23 0 -0.335 -0.125 t-0.105 -0.305 l0 -13.98 z"></path></g></svg>