<svg height="97.55635003104223" width="350" style="width: 350px; height: 97.5564px; position: absolute; top: 50%; left: 50%; transform: translate(-50%, -50%) scale(1); z-index: 0; cursor: pointer;"><defs id="SvgjsDefs1001"><linearGradient id="SvgjsLinearGradient1011"><stop id="SvgjsStop1012" stop-color="#2d388a" offset="0"></stop><stop id="SvgjsStop1013" stop-color="#00aeef" offset="1"></stop></linearGradient><linearGradient id="SvgjsLinearGradient1014"><stop id="SvgjsStop1015" stop-color="#2d388a" offset="0"></stop><stop id="SvgjsStop1016" stop-color="#00aeef" offset="1"></stop></linearGradient></defs><g id="SvgjsG1007" featurekey="e7LhAk-0" transform="matrix(0.9766615250512178,0,0,0.9766615250512178,125.94469873096585,-21.388887026054867)" fill="url(#SvgjsLinearGradient1011)"><polygon xmlns="http://www.w3.org/2000/svg" points="26.2,35.4 6.2,47.9 6.2,52.1 26.2,64.6 28.8,60.4 12.2,50 28.8,39.6 "></polygon><polygon xmlns="http://www.w3.org/2000/svg" points="71.2,39.6 87.8,50 71.2,60.4 73.8,64.6 93.8,52.1 93.8,47.9 73.8,35.4 "></polygon><polygon xmlns="http://www.w3.org/2000/svg" points="51.7,28.7 39,55.9 52.6,62.2 53.6,60 65.2,35 68.4,28.2 54.8,21.9 "></polygon><polygon xmlns="http://www.w3.org/2000/svg" points="38.4,74.9 50.5,66.8 36.9,60.4 "></polygon></g><g id="SvgjsG1008" featurekey="Qg0WB5-0" transform="matrix(1.6714420209804681,0,0,1.6714420209804681,-1.6881588162671497,63.759790326482666)" fill="url(#SvgjsLinearGradient1014)"><path d="M2.44 5.59 q0.02 -0.18 0.14 -0.31 t0.34 -0.13 l3.46 0 q0.37 0 0.48 0.38 l2.72 9.08 l2.74 -9.08 q0.14 -0.38 0.51 -0.38 l3.42 0 q0.18 0 0.325 0.125 t0.165 0.315 q0.35 3.52 0.715 6.985 t0.715 6.985 l0 0.05 q0 0.39 -0.44 0.39 l-2.83 0 q-0.46 0 -0.48 -0.44 l-0.87 -7.73 l-2.25 7.78 q-0.02 0.1 -0.145 0.24 t-0.245 0.14 l-2.63 0 q-0.12 0 -0.255 -0.135 t-0.145 -0.245 l-2.25 -7.76 l-0.87 7.71 q-0.02 0.44 -0.49 0.44 l-2.83 0 q-0.43 0 -0.43 -0.44 z M20.82 5.609999999999999 q0 -0.21 0.115 -0.335 t0.325 -0.125 l9.93 0 q0.22 0 0.34 0.13 t0.12 0.35 l0 2.48 q0 0.17 -0.12 0.325 t-0.35 0.155 l-6.48 0 l0 2.47 l5 0 q0.19 0 0.315 0.09 t0.125 0.3 l0 2.16 q0 0.14 -0.11 0.27 t-0.32 0.13 l-5.01 0 l0 2.55 l6.72 0 q0.45 0 0.45 0.46 l0 2.52 q0 0.1 -0.08 0.18 q-0.04 0.28 -0.41 0.28 l-10.12 0 q-0.2 0 -0.32 -0.105 t-0.12 -0.325 l0 -13.96 z M33.97 5.58 q0 -0.18 0.12 -0.31 t0.33 -0.13 l2.96 0 q0.17 0 0.31 0.12 t0.15 0.32 l0 10.88 l5.5 0 q0.18 0 0.31 0.12 t0.13 0.33 l0 2.63 q0 0.17 -0.115 0.31 t-0.325 0.15 l-8.93 0 q-0.44 0 -0.44 -0.44 l0 -13.98 z M48.6 19.79 q-0.11 -0.18 -0.195 -0.37 t-0.165 -0.39 l-5.13 -13.43 q0 -0.05 -0.015 -0.09 t-0.015 -0.08 q0 -0.28 0.37 -0.28 l3.22 0 q0.38 0 0.52 0.38 l3.05 9.1 q0.41 -1.14 0.785 -2.275 t0.74 -2.275 t0.74 -2.275 t0.785 -2.275 q0.14 -0.38 0.55 -0.38 l3.15 0 q0.23 0 0.325 0.085 t0.095 0.225 q0 0.08 -0.01 0.11 l0 0.03 l-5.16 13.43 q-0.05 0.14 -0.12 0.31 t-0.16 0.315 t-0.21 0.245 t-0.27 0.1 l-2.47 0 q-0.31 0 -0.41 -0.21 z M59.25 5.59 q0 -0.18 0.11 -0.31 t0.33 -0.13 l2.94 0 q0.15 0 0.32 0.12 t0.17 0.32 l0 13.97 q0 0.44 -0.49 0.44 l-2.94 0 q-0.44 0 -0.44 -0.44 l0 -13.97 z M66.38000000000001 5.59 q0 -0.18 0.11 -0.31 t0.33 -0.13 l3.27 0 q0.14 0 0.29 0.07 t0.26 0.24 q1.27 2.05 2.52 4.04 t2.53 4.04 l0 -8.01 q0.04 -0.18 0.16 -0.28 t0.28 -0.1 l2.85 0 q0.21 0 0.35 0.115 t0.14 0.325 l0 14.02 q0 0.2 -0.12 0.295 t-0.33 0.095 l-3.19 0 q-0.13 0 -0.23 -0.09 t-0.21 -0.24 q-1.33 -2.2 -2.63 -4.35 t-2.64 -4.35 l0 8.59 q0 0.22 -0.1 0.33 t-0.36 0.11 l-2.84 0 q-0.23 0 -0.335 -0.125 t-0.105 -0.305 l0 -13.98 z M88.81 5.609999999999999 q0 -0.21 0.11 -0.335 t0.33 -0.125 l6.39 0 q0.69 0 1.3 0.19 t1.12 0.525 t0.92 0.8 t0.695 1.005 t0.435 1.135 t0.15 1.205 q0 0.9 -0.325 1.76 t-0.925 1.53 t-1.44 1.085 t-1.86 0.425 l-3.03 0 l0 4.76 q0 0.43 -0.46 0.43 l-2.97 0 q-0.2 0 -0.32 -0.105 t-0.12 -0.325 l0 -13.96 z M96.34 9.99 q0 -0.3 -0.105 -0.6 t-0.305 -0.535 t-0.485 -0.385 t-0.645 -0.15 l-2.12 0 l0 3.34 l2.12 0 q0.36 0 0.65 -0.145 t0.485 -0.375 t0.3 -0.53 t0.105 -0.62 z M105.6 12.58 q0 0.83 0.28 1.55 t0.785 1.255 t1.195 0.84 t1.52 0.305 t1.525 -0.305 t1.2 -0.84 t0.785 -1.255 t0.28 -1.55 q0 -0.82 -0.28 -1.545 t-0.785 -1.265 t-1.2 -0.85 t-1.525 -0.31 t-1.52 0.31 t-1.195 0.85 t-0.785 1.265 t-0.28 1.545 z M101.74 12.59 q0 -1.06 0.27 -2.035 t0.77 -1.83 t1.195 -1.555 t1.545 -1.195 t1.825 -0.77 t2.035 -0.275 q1.05 0 2.03 0.275 t1.83 0.77 t1.55 1.195 t1.195 1.555 t0.77 1.83 t0.275 2.035 t-0.275 2.035 t-0.77 1.82 t-1.195 1.54 t-1.55 1.195 t-1.83 0.77 t-2.03 0.27 q-1.06 0 -2.035 -0.27 t-1.825 -0.77 t-1.545 -1.195 t-1.195 -1.54 t-0.77 -1.82 t-0.27 -2.035 z M119.49999999999999 5.609999999999999 q0 -0.21 0.11 -0.335 t0.33 -0.125 l6.46 0 q1.03 0 1.93 0.385 t1.57 1.045 t1.055 1.545 t0.385 1.885 q0 0.68 -0.185 1.295 t-0.515 1.15 t-0.785 0.97 t-0.995 0.745 l2.57 4.84 q0.07 0.14 0.18 0.33 t0.11 0.33 q0 0.16 -0.105 0.245 t-0.285 0.085 l-3.43 0 q-0.17 0 -0.305 -0.1 t-0.175 -0.27 l-2.43 -4.57 l-1.62 0 l0 4.51 q0 0.43 -0.46 0.43 l-2.97 0 q-0.2 0 -0.32 -0.105 t-0.12 -0.325 l0 -13.96 z M127.32999999999998 10.05 q0 -0.3 -0.11 -0.6 t-0.31 -0.55 t-0.48 -0.42 t-0.62 -0.22 q-0.28 -0.02 -0.525 -0.035 t-0.535 -0.015 l-1.38 0 l0 3.67 l1.84 0 q0.18 0 0.32 -0.01 t0.31 -0.03 q0.35 -0.04 0.63 -0.205 t0.47 -0.41 t0.29 -0.55 t0.1 -0.625 z M132.74 5.59 q0 -0.2 0.135 -0.32 t0.335 -0.12 l10.77 0 q0.18 0 0.32 0.11 t0.16 0.33 l0 2.49 q0 0.18 -0.125 0.345 t-0.355 0.165 l-3.45 0 l0 10.94 q0 0.18 -0.13 0.325 t-0.34 0.145 l-2.94 0 q-0.17 0 -0.32 -0.135 t-0.15 -0.335 l0 -10.94 l-3.44 0 q-0.2 0 -0.335 -0.13 t-0.135 -0.38 l0 -2.49 z M146.95 5.609999999999999 q0 -0.21 0.115 -0.33 t0.275 -0.13 l9.57 0 q0.23 0 0.345 0.13 t0.115 0.35 l0 2.48 q0 0.17 -0.12 0.325 t-0.35 0.155 l-6.08 0 l0 3.09 l4.49 0 q0.19 0 0.32 0.105 t0.13 0.335 l0 2.39 q0 0.17 -0.115 0.325 t-0.315 0.155 l-4.51 0 l0 4.58 q0 0.43 -0.46 0.43 l-3.05 0 q-0.36 -0.05 -0.36 -0.42 l0 -13.97 z M163.01 12.58 q0 0.83 0.28 1.55 t0.785 1.255 t1.195 0.84 t1.52 0.305 t1.525 -0.305 t1.2 -0.84 t0.785 -1.255 t0.28 -1.55 q0 -0.82 -0.28 -1.545 t-0.785 -1.265 t-1.2 -0.85 t-1.525 -0.31 t-1.52 0.31 t-1.195 0.85 t-0.785 1.265 t-0.28 1.545 z M159.14999999999998 12.59 q0 -1.06 0.27 -2.035 t0.77 -1.83 t1.195 -1.555 t1.545 -1.195 t1.825 -0.77 t2.035 -0.275 q1.05 0 2.03 0.275 t1.83 0.77 t1.55 1.195 t1.195 1.555 t0.77 1.83 t0.275 2.035 t-0.275 2.035 t-0.77 1.82 t-1.195 1.54 t-1.55 1.195 t-1.83 0.77 t-2.03 0.27 q-1.06 0 -2.035 -0.27 t-1.825 -0.77 t-1.545 -1.195 t-1.195 -1.54 t-0.77 -1.82 t-0.27 -2.035 z M176.54 5.58 q0 -0.18 0.12 -0.31 t0.33 -0.13 l2.96 0 q0.17 0 0.31 0.12 t0.15 0.32 l0 10.88 l5.5 0 q0.18 0 0.31 0.12 t0.13 0.33 l0 2.63 q0 0.17 -0.115 0.31 t-0.325 0.15 l-8.93 0 q-0.44 0 -0.44 -0.44 l0 -13.98 z M188.72 5.59 q0 -0.18 0.11 -0.31 t0.33 -0.13 l2.94 0 q0.15 0 0.32 0.12 t0.17 0.32 l0 13.97 q0 0.44 -0.49 0.44 l-2.94 0 q-0.44 0 -0.44 -0.44 l0 -13.97 z M198.98 12.58 q0 0.83 0.28 1.55 t0.785 1.255 t1.195 0.84 t1.52 0.305 t1.525 -0.305 t1.2 -0.84 t0.785 -1.255 t0.28 -1.55 q0 -0.82 -0.28 -1.545 t-0.785 -1.265 t-1.2 -0.85 t-1.525 -0.31 t-1.52 0.31 t-1.195 0.85 t-0.785 1.265 t-0.28 1.545 z M195.11999999999998 12.59 q0 -1.06 0.27 -2.035 t0.77 -1.83 t1.195 -1.555 t1.545 -1.195 t1.825 -0.77 t2.035 -0.275 q1.05 0 2.03 0.275 t1.83 0.77 t1.55 1.195 t1.195 1.555 t0.77 1.83 t0.275 2.035 t-0.275 2.035 t-0.77 1.82 t-1.195 1.54 t-1.55 1.195 t-1.83 0.77 t-2.03 0.27 q-1.06 0 -2.035 -0.27 t-1.825 -0.77 t-1.545 -1.195 t-1.195 -1.54 t-0.77 -1.82 t-0.27 -2.035 z"></path></g></svg>